<svg width="48" height="48" viewBox="0 0 48 48" fill="#fed7aa" xmlns="http://www.w3.org/2000/svg">
<path fill-rule="evenodd" clip-rule="evenodd" d="M28.639 30.9562C28.0803 27.0189 26.9139 23.2949 25.4282 19.8846C28.555 12.9282 34.0409 6.31904 38 2C30.9217 12.6175 29.6868 22.6199 28.9502 28.5863C28.8413 29.4681 28.7434 30.2617 28.639 30.9562ZM12 4C17.5 10 26 22 26 36C26 39.5329 25.2199 43.0657 23.6598 45.2207L18 39.5L11 32.5V30.0001C11 19.043 4.94803 14.2894 1.49341 14.0091C8.34589 14.2547 17.6881 19.5662 17.9924 29.5H17.9986C17.9121 14.6142 13.978 6.30762 12 4ZM1 14.0001C1.1629 14.0001 1.32743 14.0031 1.49341 14.0091C1.32221 13.9952 1.15739 13.9923 1 14.0001ZM30 38C30 24.7452 36.6112 13 47 13C39.8 13 37.3333 26.3333 37 32.5L31.5 38L30 39.5V38Z"/>
</svg>
