<svg width="48" height="48" viewBox="0 0 48 48" fill="#fed7aa" xmlns="http://www.w3.org/2000/svg">
<path fill-rule="evenodd" clip-rule="evenodd" d="M24 19C23.007 19 22.1525 19.7023 21.9602 20.6765L18.7565 36.9061C18.4982 38.2147 18.9091 39.566 19.8523 40.5092L21.1716 41.8284C22.7337 43.3905 25.2663 43.3905 26.8284 41.8284L28.1477 40.5092C29.0909 39.566 29.5019 38.2147 29.2435 36.9061L26.0398 20.6765C25.8475 19.7023 24.9931 19 24 19V19Z"/>
<path fill-rule="evenodd" clip-rule="evenodd" d="M29.9575 4.91321C26.341 2.53772 21.659 2.53772 18.0425 4.91321C16.6054 5.85724 16.3978 7.88306 17.6136 9.09888L22.5858 14.071C23.3668 14.8521 24.6332 14.8521 25.4142 14.071L30.3864 9.09888C31.6022 7.88306 31.3947 5.85724 29.9575 4.91321Z"/>
<path fill-rule="evenodd" clip-rule="evenodd" d="M14.5852 11.9752H7L7.02466 12H1.30739C0.824934 12 0.583321 12.5833 0.924467 12.9245C4.17428 16.1743 8.58199 18 13.1779 18H14.3533L11.052 22.1372C10.0735 23.3634 10.8232 25.1873 12.3812 25.3709L15.5716 25.7469C16.5595 25.8633 17.4828 25.2361 17.7385 24.2748L19.5384 17.5086C19.5839 17.3376 19.6054 17.167 19.6052 17H19.6101C19.6101 14.2249 17.3603 11.9752 14.5852 11.9752Z"/>
<path fill-rule="evenodd" clip-rule="evenodd" d="M33.4148 11.9752H41L40.9753 12H46.6926C47.1751 12 47.4167 12.5833 47.0756 12.9245C43.8257 16.1743 39.418 18 34.8221 18H33.6467L36.948 22.1372C37.9265 23.3634 37.1768 25.1873 35.6188 25.3709L32.4284 25.7469C31.4405 25.8633 30.5172 25.2361 30.2615 24.2748L28.4616 17.5086C28.4161 17.3376 28.3946 17.167 28.3948 17H28.3899C28.3899 14.2249 30.6397 11.9752 33.4148 11.9752Z"/>
</svg>
