<svg width="96" height="96" viewBox="0 0 96 96" fill="none" xmlns="http://www.w3.org/2000/svg">
<path d="M80 48C80 42.7376 78.7022 37.5564 76.2215 32.9153C73.7408 28.2743 70.1538 24.3166 65.7782 21.393C61.4027 18.4693 56.3736 16.6699 51.1365 16.1541C45.8995 15.6383 40.616 16.422 35.7541 18.4359C30.8923 20.4497 26.6021 23.6315 23.2637 27.6994C19.9252 31.7673 17.6415 36.5958 16.6149 41.7571C15.5882 46.9184 15.8503 52.2533 17.3779 57.2891C18.9055 62.3249 21.6515 66.9063 25.3726 70.6274L27.4842 68.5158C24.1104 65.1419 21.6207 60.9881 20.2356 56.4222C18.8506 51.8563 18.613 47.0194 19.5438 42.3397C20.4746 37.6601 22.5452 33.2822 25.5721 29.5939C28.599 25.9056 32.4888 23.0208 36.8969 21.1949C41.3051 19.3689 46.0955 18.6584 50.8438 19.126C55.5922 19.5937 60.1519 21.2252 64.1191 23.876C68.0864 26.5268 71.3386 30.1151 73.5878 34.323C75.837 38.531 77.0137 43.2287 77.0137 48H80Z" fill="url(#linear)"/>
  <defs>
    <linearGradient id="linear" x1="0%" y1="0%" x2="100%" y2="0%">
      <stop offset="25%"   stop-color="#eab308" stop-opacity="0"/>
      <stop offset="100%" stop-color="#eab308" stop-opacity="1"/>
    </linearGradient>
  </defs>
</svg>
